HIERARCHY
ROOT newVegas:Hips
{
	OFFSET 0.000000 96.479958 0.000000
	CHANNELS 6 Xposition Yposition Zposition Xrotation Yrotation Zrotation
	JOINT newVegas:Pelvis
	{
		OFFSET 0.000000 0.000000 0.000000
		CHANNELS 3 Xrotation Yrotation Zrotation
		JOINT newVegas:LeftUpLeg
		{
			OFFSET 18.735201 -5.666702 -4.541200
			CHANNELS 3 Xrotation Yrotation Zrotation
			JOINT newVegas:LeftLeg
			{
				OFFSET -0.021200 -31.938179 0.493100
				CHANNELS 3 Xrotation Yrotation Zrotation
				JOINT newVegas:LeftFoot
				{
					OFFSET 0.021200 -31.938179 -4.336299
					CHANNELS 3 Xrotation Yrotation Zrotation
					JOINT newVegas:LeftToeBase
					{
						OFFSET 0.943001 -26.722000 15.023500
						CHANNELS 3 Xrotation Yrotation Zrotation
						End Site
						{
							OFFSET 0.000000 30.670183 0.000000
						}
					}
				}
				JOINT newVegas:Left_PantLeg
				{
					OFFSET 0.663870 -9.044666 -1.108900
					CHANNELS 3 Xrotation Yrotation Zrotation
					End Site
					{
						OFFSET 1.415995 20.635357 0.000000
					}
				}
			}
		}
		JOINT newVegas:RightUpLeg
		{
			OFFSET -18.735201 -5.666702 -4.541200
			CHANNELS 3 Xrotation Yrotation Zrotation
			JOINT newVegas:RightLeg
			{
				OFFSET 0.018946 -31.938133 0.493100
				CHANNELS 3 Xrotation Yrotation Zrotation
				JOINT newVegas:RightFoot
				{
					OFFSET -0.018946 -31.938126 -4.336299
					CHANNELS 3 Xrotation Yrotation Zrotation
					JOINT newVegas:RightToeBase
					{
						OFFSET -0.943001 -26.722004 15.023500
						CHANNELS 3 Xrotation Yrotation Zrotation
						End Site
						{
							OFFSET 0.000000 30.670187 0.000000
						}
					}
				}
				JOINT newVegas:Right_PantLeg
				{
					OFFSET -0.661674 -9.044716 -1.108900
					CHANNELS 3 Xrotation Yrotation Zrotation
					End Site
					{
						OFFSET -1.415958 20.635269 0.000000
					}
				}
			}
		}
	}
	JOINT newVegas:Spine
	{
		OFFSET 0.000000 10.199997 -0.299500
		CHANNELS 3 Xrotation Yrotation Zrotation
		JOINT newVegas:Spine1
		{
			OFFSET 0.000000 11.900002 -1.516600
			CHANNELS 3 Xrotation Yrotation Zrotation
			JOINT newVegas:Spine2
			{
				OFFSET 0.000000 13.600006 -2.842500
				CHANNELS 3 Xrotation Yrotation Zrotation
				JOINT newVegas:Neck
				{
					OFFSET 0.000000 9.624100 -2.890100
					CHANNELS 3 Xrotation Yrotation Zrotation
					JOINT newVegas:Head
					{
						OFFSET 0.000000 14.068802 -1.351900
						CHANNELS 3 Xrotation Yrotation Zrotation
						JOINT newVegas:Hair_Back
						{
							OFFSET 0.000000 3.231903 -17.524799
							CHANNELS 3 Xrotation Yrotation Zrotation
							End Site
							{
								OFFSET 0.000000 19.849884 0.000000
							}
						}
						JOINT newVegas:Hair_Front
						{
							OFFSET 0.000000 31.260406 4.573800
							CHANNELS 3 Xrotation Yrotation Zrotation
							JOINT newVegas:Hair_Front1
							{
								OFFSET 0.000000 2.284103 11.993300
								CHANNELS 3 Xrotation Yrotation Zrotation
								JOINT newVegas:Hair_Front2
								{
									OFFSET 0.000000 2.284103 11.993300
									CHANNELS 3 Xrotation Yrotation Zrotation
									End Site
									{
										OFFSET 0.000000 12.208862 0.000000
									}
								}
							}
						}
						JOINT newVegas:Jowel
						{
							OFFSET 0.000000 -7.458206 6.864100
							CHANNELS 3 Xrotation Yrotation Zrotation
							End Site
							{
								OFFSET 0.000000 19.849884 0.000000
							}
						}
					}
				}
				JOINT newVegas:LeftShoulder
				{
					OFFSET 15.263000 10.923401 -0.547700
					CHANNELS 3 Xrotation Yrotation Zrotation
					JOINT newVegas:LeftArm
					{
						OFFSET 25.438599 -2.830597 -13.032500
						CHANNELS 3 Xrotation Yrotation Zrotation
						JOINT newVegas:LeftForeArm
						{
							OFFSET 29.960503 0.000000 0.000000
							CHANNELS 3 Xrotation Yrotation Zrotation
							JOINT newVegas:LeftHand
							{
								OFFSET 27.849251 0.000000 0.000000
								CHANNELS 3 Xrotation Yrotation Zrotation
								JOINT newVegas:LeftHandThumb1
								{
									OFFSET 4.487587 -3.305161 6.305391
									CHANNELS 3 Xrotation Yrotation Zrotation
									JOINT newVegas:LeftHandThumb2
									{
										OFFSET 5.480453 -3.164139 3.164143
										CHANNELS 3 Xrotation Yrotation Zrotation
										JOINT newVegas:LeftHandThumb3
										{
											OFFSET 5.159721 -2.978973 2.978967
											CHANNELS 3 Xrotation Yrotation Zrotation
											End Site
											{
												OFFSET 2.494507 5.926697 1.738678
											}
										}
									}
								}
								JOINT newVegas:LeftHandIndex1
								{
									OFFSET 18.578728 -0.527832 5.208049
									CHANNELS 3 Xrotation Yrotation Zrotation
									JOINT newVegas:LeftHandIndex2
									{
										OFFSET 3.192009 0.000000 0.000000
										CHANNELS 3 Xrotation Yrotation Zrotation
										JOINT newVegas:LeftHandIndex3
										{
											OFFSET 3.835129 0.000000 0.000000
											CHANNELS 3 Xrotation Yrotation Zrotation
											End Site
											{
												OFFSET -0.034599 3.816971 0.371180
											}
										}
									}
								}
								JOINT newVegas:LeftHandMiddle1
								{
									OFFSET 18.476105 0.000000 0.000000
									CHANNELS 3 Xrotation Yrotation Zrotation
									JOINT newVegas:LeftHandMiddle2
									{
										OFFSET 3.324875 0.000000 0.000000
										CHANNELS 3 Xrotation Yrotation Zrotation
										JOINT newVegas:LeftHandMiddle3
										{
											OFFSET 4.596550 0.000000 0.000000
											CHANNELS 3 Xrotation Yrotation Zrotation
											End Site
											{
												OFFSET 0.057701 4.578827 0.399218
											}
										}
									}
								}
								JOINT newVegas:LeftHandRing1
								{
									OFFSET 17.732719 0.121887 -4.201567
									CHANNELS 3 Xrotation Yrotation Zrotation
									JOINT newVegas:LeftHandRing2
									{
										OFFSET 2.733170 0.000000 0.000000
										CHANNELS 3 Xrotation Yrotation Zrotation
										JOINT newVegas:LeftHandRing3
										{
											OFFSET 3.178268 0.000000 0.000000
											CHANNELS 3 Xrotation Yrotation Zrotation
											End Site
											{
												OFFSET 0.119102 3.170624 0.185394
											}
										}
									}
								}
								JOINT newVegas:LeftHandPinky1
								{
									OFFSET 15.989624 -0.606689 -7.535461
									CHANNELS 3 Xrotation Yrotation Zrotation
									JOINT newVegas:LeftHandPinky2
									{
										OFFSET 2.538986 0.000000 0.000000
										CHANNELS 3 Xrotation Yrotation Zrotation
										JOINT newVegas:LeftHandPinky3
										{
											OFFSET 2.593102 0.000000 0.000000
											CHANNELS 3 Xrotation Yrotation Zrotation
											End Site
											{
												OFFSET -0.150902 2.584198 0.152708
											}
										}
									}
								}
							}
							JOINT newVegas:Left_Sleeve
							{
								OFFSET 0.267448 -0.649796 0.577675
								CHANNELS 3 Xrotation Yrotation Zrotation
								End Site
								{
									OFFSET 0.000000 15.991241 0.000000
								}
							}
							JOINT newVegas:Left_CapeC
							{
								OFFSET 15.715958 -8.608795 -6.935905
								CHANNELS 3 Xrotation Yrotation Zrotation
								JOINT newVegas:Left_CapeC1
								{
									OFFSET 0.000000 -8.688499 0.000000
									CHANNELS 3 Xrotation Yrotation Zrotation
									End Site
									{
										OFFSET 0.000000 8.688499 0.000000
									}
								}
							}
						}
						JOINT newVegas:Left_CapeB
						{
							OFFSET 26.118385 -8.608795 -7.079235
							CHANNELS 3 Xrotation Yrotation Zrotation
							JOINT newVegas:Left_CapeB1
							{
								OFFSET 0.000000 -8.688499 0.000000
								CHANNELS 3 Xrotation Yrotation Zrotation
								End Site
								{
									OFFSET 0.000000 8.688499 0.000000
								}
							}
						}
						JOINT newVegas:Left_CapeA
						{
							OFFSET 5.115639 -8.608795 -10.395809
							CHANNELS 3 Xrotation Yrotation Zrotation
							JOINT newVegas:Left_CapeA1
							{
								OFFSET 0.000000 -8.688499 0.000000
								CHANNELS 3 Xrotation Yrotation Zrotation
								End Site
								{
									OFFSET 0.000000 8.688499 0.000000
								}
							}
						}
					}
				}
				JOINT newVegas:RightShoulder
				{
					OFFSET -15.263000 10.923401 -0.547700
					CHANNELS 3 Xrotation Yrotation Zrotation
					JOINT newVegas:RightArm
					{
						OFFSET -25.438599 -2.830597 -13.032500
						CHANNELS 3 Xrotation Yrotation Zrotation
						JOINT newVegas:RightForeArm
						{
							OFFSET -29.960503 0.000000 0.000000
							CHANNELS 3 Xrotation Yrotation Zrotation
							JOINT newVegas:RightHand
							{
								OFFSET -27.849251 0.000000 0.000000
								CHANNELS 3 Xrotation Yrotation Zrotation
								JOINT newVegas:RightHandThumb1
								{
									OFFSET -4.487587 -3.305161 6.305391
									CHANNELS 3 Xrotation Yrotation Zrotation
									JOINT newVegas:RightHandThumb2
									{
										OFFSET -5.480453 -3.164139 3.164143
										CHANNELS 3 Xrotation Yrotation Zrotation
										JOINT newVegas:RightHandThumb3
										{
											OFFSET -5.159721 -2.978973 2.978967
											CHANNELS 3 Xrotation Yrotation Zrotation
											End Site
											{
												OFFSET -2.494507 5.926697 1.738678
											}
										}
									}
								}
								JOINT newVegas:RightHandIndex1
								{
									OFFSET -18.578728 -0.527832 5.208049
									CHANNELS 3 Xrotation Yrotation Zrotation
									JOINT newVegas:RightHandIndex2
									{
										OFFSET -3.192009 0.000000 0.000000
										CHANNELS 3 Xrotation Yrotation Zrotation
										JOINT newVegas:RightHandIndex3
										{
											OFFSET -3.835129 0.000000 0.000000
											CHANNELS 3 Xrotation Yrotation Zrotation
											End Site
											{
												OFFSET 0.034599 3.816971 0.371180
											}
										}
									}
								}
								JOINT newVegas:RightHandMiddle1
								{
									OFFSET -18.476105 0.000000 0.000000
									CHANNELS 3 Xrotation Yrotation Zrotation
									JOINT newVegas:RightHandMiddle2
									{
										OFFSET -3.324875 0.000000 0.000000
										CHANNELS 3 Xrotation Yrotation Zrotation
										JOINT newVegas:RightHandMiddle3
										{
											OFFSET -4.596550 0.000000 0.000000
											CHANNELS 3 Xrotation Yrotation Zrotation
											End Site
											{
												OFFSET -0.057701 4.578827 0.399218
											}
										}
									}
								}
								JOINT newVegas:RightHandRing1
								{
									OFFSET -17.732719 0.121887 -4.201567
									CHANNELS 3 Xrotation Yrotation Zrotation
									JOINT newVegas:RightHandRing2
									{
										OFFSET -2.733170 0.000000 0.000000
										CHANNELS 3 Xrotation Yrotation Zrotation
										JOINT newVegas:RightHandRing3
										{
											OFFSET -3.178268 0.000000 0.000000
											CHANNELS 3 Xrotation Yrotation Zrotation
											End Site
											{
												OFFSET -0.119102 3.170624 0.185394
											}
										}
									}
								}
								JOINT newVegas:RightHandPinky1
								{
									OFFSET -15.989624 -0.606689 -7.535461
									CHANNELS 3 Xrotation Yrotation Zrotation
									JOINT newVegas:RightHandPinky2
									{
										OFFSET -2.538986 0.000000 0.000000
										CHANNELS 3 Xrotation Yrotation Zrotation
										JOINT newVegas:RightHandPinky3
										{
											OFFSET -2.593102 0.000000 0.000000
											CHANNELS 3 Xrotation Yrotation Zrotation
											End Site
											{
												OFFSET 0.150902 2.584198 0.152708
											}
										}
									}
								}
							}
							JOINT newVegas:Right_CapeC
							{
								OFFSET -15.715958 -8.608795 -6.935905
								CHANNELS 3 Xrotation Yrotation Zrotation
								JOINT newVegas:Right_CapeC1
								{
									OFFSET 0.000000 -8.688499 0.000000
									CHANNELS 3 Xrotation Yrotation Zrotation
									End Site
									{
										OFFSET 0.000000 8.688499 0.000000
									}
								}
							}
							JOINT newVegas:Right_Sleeve
							{
								OFFSET -0.267448 -0.649994 0.577675
								CHANNELS 3 Xrotation Yrotation Zrotation
								End Site
								{
									OFFSET 0.000000 15.991302 0.000000
								}
							}
						}
						JOINT newVegas:Right_CapeA
						{
							OFFSET -5.115540 -8.608795 -10.395824
							CHANNELS 3 Xrotation Yrotation Zrotation
							JOINT newVegas:Right_CapeA1
							{
								OFFSET 0.000000 -8.688499 0.000000
								CHANNELS 3 Xrotation Yrotation Zrotation
								End Site
								{
									OFFSET 0.000000 8.688499 0.000000
								}
							}
						}
						JOINT newVegas:Right_CapeB
						{
							OFFSET -26.118187 -8.608795 -7.079266
							CHANNELS 3 Xrotation Yrotation Zrotation
							JOINT newVegas:Right_CapeB1
							{
								OFFSET 0.000000 -8.688499 0.000000
								CHANNELS 3 Xrotation Yrotation Zrotation
								End Site
								{
									OFFSET 0.000000 8.688499 0.000000
								}
							}
						}
					}
				}
				JOINT newVegas:Left_Collar
				{
					OFFSET 18.625099 8.655502 8.828100
					CHANNELS 3 Xrotation Yrotation Zrotation
					JOINT newVegas:Left_Collar1
					{
						OFFSET 14.783401 10.540405 -1.259500
						CHANNELS 3 Xrotation Yrotation Zrotation
						End Site
						{
							OFFSET 0.000000 18.199875 0.000000
						}
					}
				}
				JOINT newVegas:Collar_Back
				{
					OFFSET 0.000000 15.630707 -20.132601
					CHANNELS 3 Xrotation Yrotation Zrotation
					End Site
					{
						OFFSET 0.000000 22.523010 0.000000
					}
				}
				JOINT newVegas:Left_Peck
				{
					OFFSET 17.239599 -5.132599 25.482599
					CHANNELS 3 Xrotation Yrotation Zrotation
					End Site
					{
						OFFSET 0.000000 22.523010 0.000000
					}
				}
				JOINT newVegas:Right_Peck
				{
					OFFSET -17.239599 -5.132202 25.482599
					CHANNELS 3 Xrotation Yrotation Zrotation
					End Site
					{
						OFFSET 0.000000 22.523010 0.000000
					}
				}
				JOINT newVegas:Right_Collar
				{
					OFFSET -18.625099 8.655792 8.828100
					CHANNELS 3 Xrotation Yrotation Zrotation
					JOINT newVegas:Right_Collar1
					{
						OFFSET -14.783401 10.539993 -1.259500
						CHANNELS 3 Xrotation Yrotation Zrotation
						End Site
						{
							OFFSET 0.000000 18.199631 0.000000
						}
					}
				}
			}
		}
		JOINT newVegas:Belly
		{
			OFFSET 0.000000 -6.540398 9.014299
			CHANNELS 3 Xrotation Yrotation Zrotation
			End Site
			{
				OFFSET 0.000000 11.566666 0.000000
			}
		}
	}
	JOINT newVegas:ElvisFacialAnim_Joint
	{
		OFFSET 1.000000 -95.330101 -8.825800
		CHANNELS 3 Xrotation Yrotation Zrotation
		End Site
		{
			OFFSET 0.000000 35.315800 0.000000
		}
	}
}
MOTION
Frames: 4
Frame Time: 0.033333
-2.678281 83.695892 3.585664 0.412783 -38.518623 2.675849 0.000000 -0.000000 -0.000000 -43.967017 6.621413 6.307985 83.597117 -4.937907 -1.897295 -5.859041 -0.770776 -7.680763 0.000001 0.000002 0.000000 0.000001 0.000000 -0.000003 -45.924672 -2.372406 3.619118 66.418815 3.082401 -3.799855 -19.930627 3.111049 -4.164549 0.000000 -0.000003 0.000000 0.000001 0.000000 -0.000002 7.824815 -7.146990 1.461778 9.937032 5.196225 4.214981 9.201943 5.858948 4.462342 -1.635608 0.165022 0.185044 -1.635610 0.164998 0.185049 0.000000 -0.000002 0.000001 -1.635611 0.165003 0.185050 -1.635676 0.165054 0.185037 0.000002 -0.000000 0.000001 0.000000 -0.000002 -0.000000 -2.952332 -25.878613 -5.825465 -43.142142 7.979164 -55.355548 -85.130016 20.116861 -94.215998 -31.254413 -5.978366 11.417268 0.699109 9.503380 -2.418145 5.975193 12.647528 1.348341 0.000003 -0.000004 -0.000001 9.479719 -1.289778 -20.785560 0.709497 2.796431 -28.467101 -0.000001 -0.000001 -0.000007 10.058187 -1.800605 -20.644720 1.774269 4.200485 -45.782058 0.000004 -0.000002 -0.000002 1.254228 -0.073790 -17.945777 3.754082 5.463602 -68.965260 -0.000002 -0.000004 0.000000 -7.938249 1.609064 -6.495674 2.210541 4.583595 -51.475260 -0.000001 -0.000005 -0.000002 -0.000000 0.000003 -0.000000 -0.000000 0.000003 -0.000000 -0.000000 0.000004 0.000000 0.000001 0.000001 -0.000004 0.000001 -0.000000 -0.000003 0.000001 0.000001 -0.000004 0.000000 0.000002 -0.000004 -0.175469 -10.857782 -0.290304 -5.035586 64.273740 36.283290 44.617924 126.410354 -56.523521 -4.353761 -4.222696 -8.957824 13.942520 -4.273752 -5.300352 7.113310 -20.767554 -2.619464 0.000001 -0.000001 0.000001 0.357634 -5.832653 5.175860 0.094398 -0.933651 11.539978 -0.000000 -0.000000 -0.000002 3.764123 -12.080533 1.143813 5.714244 -4.535780 103.133486 0.000001 0.000000 0.000001 -12.155597 -12.623953 9.228384 6.566926 -4.248390 114.232284 0.000001 -0.000001 0.000002 -17.635707 -10.496823 3.325472 4.993636 -4.644979 94.147922 -0.000002 -0.000004 -0.000000 0.000000 -0.000000 -0.000000 0.000000 -0.000000 -0.000002 0.000000 -0.000001 -0.000000 0.000000 0.000003 0.000000 0.000001 0.000002 0.000000 0.000000 0.000003 0.000000 0.000001 0.000002 0.000000 -0.000000 0.000000 -0.000000 -0.000000 0.000000 -0.000000 -0.000000 0.000000 -0.000000 -0.000000 0.000000 -0.000000 -0.000000 0.000000 -0.000000 -0.000000 0.000000 -0.000000 -0.000000 0.000000 -0.000000 -0.000001 -0.000001 0.000000 0.000000 -0.000000 -0.000000 
-2.424801 82.557175 -3.811076 0.318307 -36.653835 2.756840 0.000000 -0.000001 0.000000 -34.576818 7.820322 0.603592 81.457642 -4.427776 -2.467132 -7.042579 0.296619 -9.900904 -0.000000 0.000000 0.000002 0.000001 -0.000000 0.000001 -51.098305 -4.509860 7.407821 64.465661 0.856682 -3.949117 -12.477956 1.711722 -7.062675 -0.000000 -0.000002 -0.000000 0.000000 0.000001 -0.000000 7.837102 -7.572466 1.260527 9.922602 5.185509 4.191879 9.187486 5.848187 4.438929 -1.484290 0.046681 0.187134 -1.484297 0.046684 0.187127 -0.000001 -0.000001 0.000003 -1.484297 0.046691 0.187132 -1.484202 0.046715 0.187123 0.000000 -0.000001 0.000001 -0.000001 -0.000001 0.000001 -2.328173 -27.029507 -5.792012 -44.194637 6.519656 -54.349772 -85.387494 20.469303 -93.367996 -31.323227 -6.044276 11.029191 0.699112 9.503386 -2.418147 5.975195 12.647530 1.348340 0.000002 -0.000001 0.000001 9.479722 -1.289778 -20.785562 0.709495 2.796435 -28.467098 -0.000003 -0.000000 -0.000002 10.058187 -1.800601 -20.644720 1.774267 4.200481 -45.782054 -0.000005 0.000000 -0.000000 1.254229 -0.073788 -17.945779 3.754082 5.463609 -68.965260 -0.000000 0.000001 0.000002 -7.938251 1.609065 -6.495673 2.210545 4.583602 -51.475256 -0.000001 -0.000005 -0.000001 0.000002 0.000000 -0.000003 0.000002 0.000000 -0.000003 0.000002 0.000001 -0.000002 0.000003 -0.000003 0.000000 0.000004 -0.000004 -0.000001 0.000003 -0.000003 0.000000 0.000003 -0.000003 0.000000 0.113032 -11.910946 -0.225588 -4.348270 64.158870 35.135234 43.726581 125.837302 -55.763720 -5.314052 -3.258323 -9.700196 13.942518 -4.273754 -5.300350 7.113312 -20.767557 -2.619464 0.000000 -0.000001 0.000001 0.357635 -5.832653 5.175858 0.094399 -0.933649 11.539982 0.000000 0.000001 -0.000001 3.764124 -12.080535 1.143815 5.714243 -4.535780 103.133480 0.000001 -0.000000 -0.000000 -12.155598 -12.623951 9.228383 6.566927 -4.248389 114.232284 -0.000000 0.000000 0.000003 -17.635706 -10.496821 3.325471 4.993631 -4.644977 94.147922 -0.000001 -0.000004 0.000000 0.000000 0.000001 -0.000001 0.000000 0.000003 -0.000000 0.000000 0.000001 -0.000001 -0.000001 0.000001 -0.000000 -0.000001 0.000000 -0.000000 -0.000001 0.000001 -0.000000 -0.000001 -0.000000 -0.000000 -0.000001 -0.000000 0.000001 -0.000001 -0.000000 0.000001 -0.000001 -0.000000 0.000001 -0.000001 -0.000000 0.000001 -0.000001 -0.000000 0.000001 -0.000001 -0.000000 0.000001 -0.000001 -0.000000 0.000001 0.000000 -0.000002 0.000000 0.000000 -0.000001 0.000000 
-1.895695 80.811699 -11.389347 0.265071 -34.510449 2.803599 -0.000000 0.000002 -0.000000 -23.781523 8.242040 -5.035343 75.685388 -5.826032 -3.169190 -4.458319 1.597986 -12.199777 -0.000002 -0.000001 -0.000001 -0.000000 0.000001 -0.000000 -56.309329 -6.744820 10.351947 61.487132 -0.055374 -4.017835 -4.178170 -0.949876 -9.943945 -0.000000 -0.000002 0.000000 0.000000 0.000000 -0.000001 7.704967 -8.107545 0.882407 9.844246 5.183154 4.248457 9.104819 5.860107 4.484817 -1.323109 -0.086148 0.187440 -1.323088 -0.086168 0.187459 -0.000000 0.000000 0.000000 -1.323033 -0.086139 0.187435 -1.323316 -0.086110 0.187435 -0.000000 0.000000 -0.000000 -0.000000 0.000000 -0.000001 -1.612421 -28.367248 -5.713673 -45.424788 4.993057 -52.731297 -85.031962 23.041973 -92.586151 -29.646156 -6.551524 10.606690 0.699110 9.503376 -2.418148 5.975196 12.647526 1.348335 0.000002 -0.000002 0.000000 9.479719 -1.289782 -20.785562 0.709494 2.796435 -28.467096 -0.000005 0.000002 0.000003 10.058186 -1.800607 -20.644723 1.774270 4.200481 -45.782051 0.000002 -0.000003 -0.000001 1.254228 -0.073794 -17.945781 3.754081 5.463609 -68.965260 0.000000 -0.000001 0.000002 -7.938246 1.609059 -6.495677 2.210545 4.583597 -51.475256 0.000004 -0.000003 -0.000005 -0.000001 0.000001 0.000000 -0.000001 0.000001 0.000000 -0.000001 0.000001 0.000001 0.000001 0.000000 -0.000000 0.000001 -0.000001 -0.000002 0.000001 0.000000 -0.000000 -0.000000 -0.000001 -0.000001 0.362621 -12.866346 -0.164006 -3.935324 63.741777 34.451413 42.277676 125.172492 -54.386020 -6.664692 -2.545625 -10.590159 13.942520 -4.273748 -5.300351 7.113314 -20.767557 -2.619466 -0.000000 0.000001 -0.000000 0.357635 -5.832651 5.175859 0.094397 -0.933648 11.539979 -0.000000 0.000000 0.000001 3.764124 -12.080532 1.143814 5.714243 -4.535783 103.133480 0.000000 -0.000000 -0.000003 -12.155595 -12.623948 9.228384 6.566926 -4.248393 114.232284 0.000000 -0.000001 0.000001 -17.635706 -10.496817 3.325473 4.993636 -4.644979 94.147922 0.000000 -0.000007 0.000000 0.000000 -0.000002 0.000000 0.000000 -0.000002 0.000000 0.000000 -0.000002 0.000000 -0.000000 0.000000 -0.000002 0.000000 0.000000 -0.000002 -0.000000 0.000000 -0.000002 0.000000 -0.000000 -0.000002 0.000002 0.000001 -0.000002 0.000002 0.000001 -0.000002 0.000002 0.000001 -0.000002 0.000002 0.000001 -0.000002 0.000002 0.000001 -0.000002 0.000002 0.000001 -0.000002 0.000002 0.000001 -0.000002 -0.000000 -0.000001 -0.000000 -0.000000 0.000002 -0.000000 
-1.272230 78.615005 -18.680370 0.239800 -32.214929 2.859315 -0.000000 -0.000002 -0.000000 -11.422628 7.429758 -9.920845 65.777406 -8.167299 -3.972845 0.288368 2.891096 -16.007424 -0.000001 0.000000 -0.000001 0.000001 0.000001 0.000003 -60.745025 -8.920054 12.166514 57.011674 -1.082623 -4.085664 4.508234 -2.965186 -12.392568 0.000000 -0.000002 -0.000000 -0.000000 0.000002 -0.000001 7.431223 -8.782921 0.382081 9.786309 5.163250 4.320779 9.042705 5.856685 4.545223 -1.180565 -0.224103 0.185410 -1.180549 -0.224117 0.185414 0.000001 0.000001 -0.000001 -1.180484 -0.224107 0.185409 -1.180554 -0.224127 0.185421 0.000003 0.000002 -0.000001 0.000001 0.000001 -0.000001 -0.911860 -29.742817 -5.597044 -46.241200 3.126385 -51.357797 -85.799108 21.599264 -91.895544 -31.683745 -6.902574 10.795943 0.699111 9.503375 -2.418148 5.975197 12.647526 1.348332 -0.000000 -0.000004 -0.000003 9.479719 -1.289786 -20.785562 0.709497 2.796431 -28.467107 0.000001 -0.000001 -0.000002 10.058189 -1.800610 -20.644723 1.774268 4.200482 -45.782054 -0.000001 -0.000002 0.000000 1.254228 -0.073794 -17.945782 3.754077 5.463606 -68.965260 0.000002 -0.000001 0.000000 -7.938249 1.609054 -6.495677 2.210540 4.583592 -51.475263 -0.000000 0.000002 -0.000003 0.000002 0.000000 0.000002 0.000002 0.000000 0.000002 0.000001 0.000001 0.000002 -0.000002 -0.000002 0.000001 -0.000002 -0.000003 -0.000000 -0.000002 -0.000002 0.000001 -0.000003 -0.000001 0.000001 0.545821 -13.640956 -0.116468 -3.298289 63.579458 34.028685 43.506348 127.482448 -55.573192 -4.268162 -2.355359 -11.374662 13.942516 -4.273751 -5.300351 7.113313 -20.767557 -2.619461 0.000000 -0.000001 0.000001 0.357635 -5.832654 5.175860 0.094398 -0.933650 11.539982 0.000001 0.000002 -0.000000 3.764122 -12.080533 1.143813 5.714243 -4.535780 103.133480 -0.000000 -0.000000 0.000000 -12.155596 -12.623948 9.228383 6.566927 -4.248393 114.232284 0.000002 0.000001 0.000000 -17.635704 -10.496823 3.325471 4.993635 -4.644982 94.147922 -0.000001 -0.000002 0.000002 -0.000001 0.000001 0.000000 -0.000001 0.000002 -0.000000 -0.000001 0.000001 -0.000001 0.000001 -0.000001 -0.000000 0.000002 0.000000 -0.000000 0.000001 -0.000001 -0.000000 0.000002 -0.000000 -0.000000 -0.000000 0.000003 -0.000000 -0.000000 0.000003 -0.000000 -0.000000 0.000003 -0.000000 -0.000000 0.000003 -0.000000 -0.000000 0.000003 -0.000000 -0.000000 0.000003 -0.000000 -0.000000 0.000003 -0.000000 -0.000000 -0.000002 -0.000000 -0.000000 -0.000002 -0.000000 
